<svg xmlns="http://www.w3.org/2000/svg" viewBox="0 0 129.18 135.13"><defs><style>.cls-1{fill:#4a1533;}</style></defs><title>Plan de travail 57</title><g id="Objects"><path class="cls-1" d="M.28,130.36C9.22,134,19,137,28.57,133.64c8.08-2.88,14.28-10.16,19.08-17,5.15-7.32,11.14-17.51,10.16-26.82-.75-7.16-6.53-10.75-13.34-9.62a17.21,17.21,0,0,0-13.4,11.11c-3,7.52,1.64,14.43,9.68,15.05,7.79.59,14.73-5,19.36-10.64,6.81-8.35,9.69-19.3,13.5-29.19,4.78-12.4,10.08-24.11,18.16-34.74A142,142,0,0,1,104.71,17a75,75,0,0,1,7-6.08c3.09-2.4,7.16-6.2,11.1-7.13,1.59-.38,1.24-1.7-.35-1.32C116.29,4,110,9.86,105.4,14A124,124,0,0,0,89.32,31.74C78.94,45.38,73.11,61,67.19,76.93c-3.06,8.26-6.46,16.41-13.06,22.5-4,3.72-9.85,7-15.43,4.71-3.71-1.53-6.56-5.22-6.08-9.37.9-7.68,9.13-16.25,17.35-12.53s5.1,15.07,2.45,21.36a68.18,68.18,0,0,1-16.36,23.57c-10.09,9.25-22.15,6.64-33.69,1.91-.78-.32-3.18.83-2.09,1.28Z"/><path class="cls-1" d="M104,17.46c-1.12-.63,2.41-6.05,3-6.88,2.1-3.09,5.15-5.24,8.21-7.31,2.3-1.56,6.29-2.77,7.23.86.61,2.41-2,4.48-3.68,5.77-3.67,2.91-10.69,5.88-15.52,6-.53,0-1.68.23-1.83.91l-.05.25c-.2,1,2.45.57,2.64-.33l0-.25-1.83.91c3.7-.11,7.38-1.75,10.85-2.92a24,24,0,0,0,8.57-4.87c1.89-1.67,3.91-3.42,3.43-6.2C124.65.91,123,.1,120.64,0,115.13-.2,109,5,105.7,9c-1.15,1.41-6.34,8.31-3.75,9.74.75.42,3.17-.68,2.09-1.27Z"/><path class="cls-1" d="M93,29.19c-5.94-.48-8.81-4.85-10-10.09a26,26,0,0,1-.8-5.34c0-2.17,1.43-12,6.83-6.64,2.25,2.21,2,7.61,2.15,10.47.15,4.2-.68,8.07-.84,12.22,0,1.07,2.6.54,2.63-.33.23-5.8,4.15-30.65-9.15-24.29-5.3,2.54-4.57,9.93-3.46,14.62,1.45,6.1,5.2,10.35,11.66,10.87,1,.08,2.8-1.35,1-1.49Z"/><path class="cls-1" d="M91.66,29c-.3-4.24-1.94-8.24-2.26-12.5-.16-2.08,0-4.13-.15-6.2-.1-1-1.24-4.14-.2-5s-1.46-1-2.11-.43-.72.86-.93,1.81c-.46,2.1.6,5.93.66,8,.16,5.18,2,10,2.35,15.08.06.85,2.71.31,2.64-.7Z"/><path class="cls-1" d="M95,28.45a38.24,38.24,0,0,1,18.6-4.33c3,0,6.49.17,9.35,1.35,1.36.55,2.69,1.13,3,2.72.82,1.07.52,1.79-.9,2.18a3.63,3.63,0,0,1-2.83,1.28c-5,1.33-10.51.6-15.57.05s-11-1.46-15.48-3.88c-.59-.32-2.22,0-2.36.8l0,.19c-.19,1,2.47.57,2.63-.33l0-.19-2.36.8c6.36,3.45,15,4.33,22.2,4.71,4.14.21,14.79.77,17.34-3.77,3.34-6-9.34-7.24-12.34-7.37a43.51,43.51,0,0,0-22.9,5c-1.55.86.77,1.26,1.63.79Z"/><path class="cls-1" d="M92.81,28.22c10.74-.09,21.49.29,32.23.29,1,0,2.8-1.5,1-1.5-10.75,0-21.5-.37-32.23-.29-1,0-2.8,1.51-1,1.5Z"/><path class="cls-1" d="M82.32,46.08c-3.16.43-8.26-4.18-10.38-6.13a16,16,0,0,1-4.47-6.7c-.8-2.46-2-7.45-.16-9.62,1.51-1.77,4-1.07,5.1,1,.5,1,.9,2,1.3,3.07.77,2,1.69,4,2.35,6.08,1.53,4.74,1.74,9.77,3,14.54.24.91,2.87.22,2.63-.71-1.17-4.4-5.26-35.75-15.58-25.89C61.6,26,64.23,34.91,67.64,39.05,70.55,42.58,77.1,48.2,82,47.53c1.27-.17,2.19-1.7.36-1.45Z"/><path class="cls-1" d="M67.93,21.25a73.63,73.63,0,0,0,4.89,15.06c1.5,3.4,2.49,7.21,4.58,10.3.49.73,3-.14,2.45-1-2.26-3.32-3.38-7.63-5-11.29a67.58,67.58,0,0,1-4.29-13.74c-.19-.9-2.83-.25-2.64.7Z"/><path class="cls-1" d="M82.66,47c2.65-2.49,9-2.69,12.4-2.67a26.37,26.37,0,0,1,8.62,1.56,25.6,25.6,0,0,1,3.14,1.24q1.58,5.57-3.57,5.49c-4.82.77-9.78-.16-14.36-1.66-2.83-.93-4.86-3.8-7.65-4.3-.84-.15-3.1,1.16-1.61,1.43,1.3.23,2.57,2,3.67,2.65A18.12,18.12,0,0,0,88,52.6a35,35,0,0,0,10.88,1.69c3.23,0,12.13-.52,12.49-5.34s-11.95-6.06-15.23-6.09c-4.5,0-12,.43-15.54,3.73-1.11,1,1.48,1,2.11.43Z"/><path class="cls-1" d="M83.44,47.26c4.86.35,9.39,1.73,14.16,2.51,3.94.65,7.94.44,11.91.42,1,0,2.8-1.5,1-1.49-4.84,0-9.53.13-14.28-1a74.72,74.72,0,0,0-11.8-2c-1-.08-2.8,1.36-1,1.49Z"/><path class="cls-1" d="M71.81,69.61c-4.74-1.89-8.85-3.22-13-6.41-3.7-2.84-9.52-8.68-7.58-13.92-.15-1.93.84-2.55,3-1.88a3.65,3.65,0,0,1,4.56,1.2A14.13,14.13,0,0,1,60.84,51a30.2,30.2,0,0,1,3.67,8.27c1.31,3.91,3,8.29,5.62,11.48.58.69,3.11-.24,2.44-1C67.81,64,67.53,56,63.29,50c-2.74-3.85-8.06-7.07-12.53-4-5,3.44-1.67,10.81,1.43,14.42C57,66,63.18,68.28,69.72,70.88c.79.32,3.18-.84,2.09-1.27Z"/><path class="cls-1" d="M51,46.41c1.79,2.52,2.62,5.81,4.15,8.52a56.46,56.46,0,0,0,4,6c3,3.94,6.21,8.36,10,11.52.71.59,3.16-.44,2.44-1-3.79-3.14-7-7.57-10-11.51a54.68,54.68,0,0,1-5.33-8.59c-1-2-1.55-4.17-2.83-6-.51-.72-3.06.16-2.45,1Z"/><path class="cls-1" d="M73.05,69.76c5.18-2.69,11.23-3.39,17-3.84,3.08-.24,7.33-1.32,10.16.37,4.39,2.64,2.56,7.9-2.48,9.06a33.13,33.13,0,0,1-16.54-1.09c-3.72-1.24-7.29-3.37-11-4.4-.55-.16-2,.15-2.12.88L68,71c-.13,1,2.52.56,2.64-.33l0-.26-2.12.88c3.65,1,7.15,3.16,10.78,4.36a36.62,36.62,0,0,0,12.48,1.5c4.21-.05,12-.2,13.55-5.3,2-6.39-5.71-8.06-10.16-7.81-8,.46-16.54,1.19-23.77,4.94-1.56.81.77,1.23,1.64.78Z"/><path class="cls-1" d="M71.13,70.08a72.39,72.39,0,0,0,19.5.92c3.31-.27,8.14,0,11.13-1.54,1.57-.81-.77-1.23-1.63-.78s-3.2.33-4.11.43c-2.13.23-4.6.41-6.72.46-5.29.13-11.39.18-16.56-.92-.84-.18-3.09,1.12-1.61,1.43Z"/></g></svg>