<?xml version="1.0" encoding="UTF-8"?>
<svg id="Objects" xmlns="http://www.w3.org/2000/svg" viewBox="0 0 243.48 123.1">
  <defs>
    <style>
      .cls-1 {
        fill: #4a1533;
        stroke-width: 0px;
      }
    </style>
  </defs>
  <path class="cls-1" d="m204.59,78.4c3.7-9.99,3.85-19.14-1.42-28.65-4.41-7.98-12.15-14.04-20.05-18.33-8.26-4.49-17.43-7.06-26.77-7.88-9.08-.8-19.49-1.59-28.22,1.55-9.31,3.35-18.11,9.16-26.09,14.91-4.03,2.9-8.03,5.88-12.31,8.42-5.67,3.35-11.43,5.02-17.85,6.28-6.05,1.19-13.76,2.56-18.72-2.18-3.37-3.21-4.05-11.17-1.96-15.08,2.17-4.08,10.6-13.81,14.39-6.5,3.09,5.96.28,11.97-4.61,15.74-5.45,4.2-13.16,5.89-19.96,5.78-7.45-.12-13.16-3.35-17.91-8.94-4.11-4.84-8.45-9.63-10.34-15.82-.84-2.74-1.58-5.74-1.76-8.6-.19-3.08.84-6.02.62-9.11-.06-.85-2.71-.3-2.63.71.22,3.09-.86,6.02-.62,9.11.24,3.1,1.01,6.34,1.98,9.29,1.92,5.81,5.98,10.21,9.8,14.84,7.31,8.85,16.76,11.28,27.86,9.29,8.46-1.51,21.2-6.38,21.36-16.72.13-8.2-5.87-12.86-12.87-7.7-3.45,2.54-7.84,7.02-8.86,11.3-.82,3.47-.17,9.38,1.94,12.3,6.06,8.35,20.62,4.36,28.69,2.39,11.81-2.88,21.02-11.24,30.87-17.85,5.38-3.61,11.3-7.03,17.24-9.64,6.98-3.06,14.64-2.96,22.13-2.67,15.23.59,29.95,4.56,41.92,14.38,5.62,4.61,10.16,10.13,12.59,17.06,2.78,7.91,1.77,14.97-1.08,22.67-.32.87,2.31.55,2.63-.33h0Z"/>
  <path class="cls-1" d="m203.63,75.77c-8.57,2.9-12.81,12.21-14.75,20.32-1.39,5.83-4.05,18.63,2.71,22.42.66.37,1.85-.04,2.27-.61.73-.97.81-1.91,1.2-3.03.76-2.19,2.02-4.25,3.17-6.27,2.54-4.45,5.15-8.87,7.5-13.44,1.6-3.12,2.61-6.7,2.59-10.22-.01-2.39-.04-7.45-2.23-9.03-.75-.54-3.17.51-2.45,1.03,2.47,1.78,2.17,8.79,1.84,11.18-.57,4.02-2.5,7.36-4.37,10.88-1.96,3.69-4.06,7.27-6.09,10.91-.71,1.27-1.55,2.55-2.1,3.9-.55,1.33-.62,2.85-1.51,4.03.76-.2,1.52-.41,2.27-.61-5.62-3.15-3.63-14.68-2.64-19.39.77-3.64,1.68-7.3,3.3-10.66,1.77-3.69,5.53-8.7,9.64-10.09,1.52-.52,1.22-1.85-.35-1.32h0Z"/>
  <path class="cls-1" d="m204.54,74.69c7.61-.09,17.32,2.19,22.87,7.78,5.32,5.35,8.77,14.96,7.92,22.55.79-.27,1.58-.53,2.37-.8-1.92-.73-3.48-2.38-5.18-3.51-1.65-1.1-3.44-1.88-5.15-2.87-3.55-2.04-7.07-5.25-9.71-8.38-2.45-2.9-5.36-6.6-7.04-10-.41-.82-5-4.19-4.32-4.75,1.15-.96-1.28-1.28-1.93-.73-1.48,1.23,2.21,2.84,2.75,4.16,1.44,3.51,3.67,6.04,5.88,9.1,2.95,4.1,6.26,7.83,10.45,10.77,1.6,1.12,3.42,1.83,5.1,2.81,2.42,1.41,4.46,3.67,7.06,4.67.58.22,2.27.05,2.37-.8.92-8.21-2.81-18.7-9.09-24.16-6-5.23-15.56-7.41-23.31-7.32-.99.01-2.79,1.51-1.02,1.49h0Z"/>
  <path class="cls-1" d="m207.08,74.66c-.02-.08-.04-.16-.06-.24-.22-.88-1.97-.19-2.37.14-2.15,1.75-3.07,5.33-4.33,7.74-1.58,3.03-2.39,5.8-2.62,9.22-.07,1.07,2.58.55,2.63-.33.22-3.29.91-5.87,2.44-8.84,1.05-2.03,2.17-5.88,3.99-7.37-.79.05-1.58.09-2.37.14.02.08.04.16.06.24.23.91,2.87.22,2.63-.71h0Z"/>
  <path class="cls-1" d="m206.72,73.91c-.05.03-.1.07-.15.1-.33.22-.64.51-.41.91,1.5,2.5,3.39,4.58,5.8,6.23,1.26.86,2.6,1.62,4,2.24,1.72.76,3.74.99,5.28,2.09.76.54,3.17-.52,2.45-1.03-2.41-1.71-5.51-2.11-8.09-3.61-2.96-1.72-5.24-4.02-6.99-6.95-.14.3-.27.6-.41.91.05-.03.1-.07.15-.1,1.49-.98-.79-1.34-1.63-.78h0Z"/>
  <path class="cls-1" d="m194.38,38.63c5.28-4.33,11.59-7.33,18.64-6.19,4.91.8,11.15,2.95,15.15,6.06.47-.41.94-.83,1.4-1.24-2.2.3-4.06.18-6.16.88-3.11,1.05-5.98,2.7-9.15,3.62-7.37,2.14-13.42.1-19.89-3.28-.76-.4-3.18.71-2.1,1.27,5.8,3.02,10.78,4.92,17.47,4.3,2.53-.23,4.95-.95,7.33-1.82,4.16-1.51,7.69-2.92,12.14-3.53.27-.04,2.12-.69,1.4-1.24-11.73-9.11-27.24-8.38-38.34.73-1.16.95,1.45.97,2.11.43h0Z"/>
  <path class="cls-1" d="m192.81,39.16c2.73-.1,5.34-.88,8.07-1.02,3.68-.18,7.21-.07,10.82.63.84.16,3.1-1.14,1.61-1.43-3.34-.65-6.36-.79-9.78-.74-3.29.04-6.44.95-9.7,1.07-.98.03-2.79,1.56-1.02,1.49h0Z"/>
  <path class="cls-1" d="m175.1,30.08c-1.52,3.24-3.7,5.92-4.75,9.4-.94,3.11-1.39,6.46-1.55,9.69-.27,5.52,1.43,11.15,2.46,16.54.2,1.02,2.39.08,2.63-.52,3.03-7.46,9.74-14.11,9.94-22.52.12-5.03-.99-7.96-3.21-12.34-.11-.22-1.18-.78-3.31-.88-1-.05-2.82-1.02-1.05-.93,1.17.06,3.6,5.78,4.04,6.86,1.4,3.42,1.29,8.49.16,11.97-2.12,6.52-6.63,11.84-9.2,18.17.88-.17,1.76-.35,2.63-.52-1.1-5.76-2.85-11.75-2.35-17.64.25-3.01.71-6.1,1.69-8.96,1.1-3.22,3.1-5.67,4.5-8.66.37-.78-2.24-.52-2.63.33h0Z"/>
  <path class="cls-1" d="m176.63,30.74c0,6.22-.64,12.18-1.78,18.29-.19,1,2.47.57,2.63-.33,1.16-6.24,1.79-12.32,1.78-18.67,0-.81-2.64-.32-2.63.71h0Z"/>
  <path class="cls-1" d="m152.14,22.78c-2.31-4.75.7-10.32,4.21-13.66,2.65-2.52,5.53-3.71,8.96-4.87,1.29-.43,4.47-1.84,4.62-.56.1.83-2.16,3.96-2.56,4.74-.92,1.84-1.89,3.55-3.09,5.23-3.4,4.73-6.43,9.48-12.94,9.44-.99,0-2.8,1.48-1.02,1.49,5.59.04,9.74-1.96,13.14-6.5,3.68-4.92,7.6-10.38,10-16.03.13-.3-.29-.52-.51-.55-5.37-.63-12.28,2.2-16.53,5.38-4.74,3.55-9.88,10.45-6.9,16.59.44.9,3.01.07,2.63-.71h0Z"/>
  <path class="cls-1" d="m152.44,23.91c1.24-2.41,3-4.47,4.41-6.78.63-1.04,1.16-2.12,1.95-3.05.76-.89,1.63-1.55,2.17-2.61.56-1.12-2.06-.83-2.45-.06-.51,1.01-1.4,1.65-2.11,2.5-.81.97-1.36,2.09-2.01,3.16-1.41,2.31-3.16,4.37-4.41,6.78-.57,1.11,2.06.83,2.45.06h0Z"/>
</svg>