<svg xmlns="http://www.w3.org/2000/svg" viewBox="0 0 74.32 224.16"><defs><style>.cls-1{fill:#4a1533;}</style></defs><title>Plan de travail 56</title><g id="Objects"><path class="cls-1" d="M49.21,217.65a4.63,4.63,0,0,0,.53,1.61,1.06,1.06,0,0,0,1.81,0c1.34-2-.64-5.38-1.29-7.31-2.27-6.73-3.94-13.72-5.74-20.58-3.58-13.69-6.86-27.48-9.16-41.45-4.77-28.93-5.83-58.83.18-87.64a171.75,171.75,0,0,1,6.05-22.14c1.29-3.66,2.76-7.25,4.13-10.88.89-2.37,1.31-6.21,3.45-7.78,1.07-.79,0-2.61-1.06-1.81-3,2.23-3.59,6.93-4.89,10.24a190.4,190.4,0,0,0-6.94,20.21,199.44,199.44,0,0,0-6.77,41.6c-1.43,28.87,2.73,58,9.42,86,1.86,7.76,3.88,15.5,6,23.2,1.06,3.89,2.07,7.83,3.37,11.66.38,1.14,2.21,4.5,1.46,5.59h1.81c-.11-.37-.21-.74-.31-1.11-.22-1.33-2.24-.76-2,.56Z"/><path class="cls-1" d="M33.83,64c-6.74.06-11.57-2.14-15.15-8-2.55-4.18-7.85-15.58-.45-17.42,6.76-1.69,9.85,7.73,11.42,12.56A51.53,51.53,0,0,1,31.72,66.6a1.05,1.05,0,0,0,2.1,0A52.88,52.88,0,0,0,28.9,43.69c-2.54-5.4-8-10-14-6-5.74,3.88-1.2,13.69,1.4,18.36A21.79,21.79,0,0,0,23,63.67c3.23,2.17,7,2.43,10.83,2.39a1,1,0,0,0,0-2.09Z"/><path class="cls-1" d="M33.85,85.7C35.14,80.44,36.74,75,40.68,71c2.93-2.92,12.74-8.7,12.69-.72-.06,10.77-14.91,12.94-22.79,15.18a1.05,1.05,0,0,0,.28,2.06c.84,0,1.67,0,2.51,0a1.05,1.05,0,0,0,0-2.1c-.84,0-1.67,0-2.51,0l.28,2.06c6.47-1.85,14.77-3.2,20-7.85,3.28-2.93,5.6-8.44,3.78-12.75-2.2-5.21-9-2.17-12.41,0C36.1,71,33.55,78.11,31.83,85.14c-.32,1.31,1.7,1.87,2,.56Z"/><path class="cls-1" d="M43.67,33.82A27,27,0,0,1,42,25.34c-.25-3.09-.67-6.13.23-9.16,1.4-4.66,9-13.1,14.19-8.54,3.77,3.3-2.25,12-4.52,15.33-3,4.39-6.82,7.89-10.15,12-.84,1,.63,2.53,1.48,1.49,2.6-3.19,5.58-6,8.14-9.25a62.4,62.4,0,0,0,5.81-9.33c2.19-4.07,5.11-12-1.75-13.26-5.92-1.07-12.07,3.57-14.38,8.75-1.68,3.77-1.52,7.37-1.19,11.39.28,3.45.59,7,2,10.16.54,1.23,2.35.17,1.81-1.06Z"/><path class="cls-1" d="M29.38,108.91c-.53,1.63-10.79-4.84-11.75-5.51-3.55-2.5-9.89-8.13-6.77-13.12C14.65,84.2,22.14,95.57,24,98.35c2.65,4,3.7,8.67,5.78,13,.59,1.22,2.39.16,1.81-1-1.9-3.9-2.84-8.18-5.11-11.91a52.24,52.24,0,0,0-7.23-9.25c-1.92-2-4-3.43-6.85-2.48a6.22,6.22,0,0,0-4.18,5.2c-.85,6.52,5,11.19,9.83,14.39,2.08,1.38,11.8,8.2,13.38,3.27.41-1.29-1.62-1.84-2-.56Z"/><path class="cls-1" d="M32.19,126.33c1-.94,1-2.23,1.33-3.52a47,47,0,0,1,2-6.12c1.94-5,4.84-8.83,10.26-10.32a5.37,5.37,0,0,1,2.88-.25c2.27.85,1.88,4,1.13,5.73a20.32,20.32,0,0,1-4.9,6.16,41,41,0,0,1-13.68,7.41,1,1,0,0,0-.74.73l0,.22c-.24,1.32,1.78,1.88,2,.55-.08.4,3.62-1.21,3.73-1.27,1.58-.79,3.08-1.73,4.64-2.57a24.83,24.83,0,0,0,7.72-5.84c2.49-3,6.49-9.22,2-12.49-3.38-2.48-9.24.88-11.93,3-2.36,1.81-3.54,4.5-4.67,7.2-.7,1.69-1.28,3.43-1.84,5.17-.32,1-.69,4.08-1.45,4.78-1,.91.49,2.39,1.49,1.48Z"/><path class="cls-1" d="M34.84,147.53c-1.27-5.32-8-9.91-12.84-11.54a36.75,36.75,0,0,0-9.93-1.67c-2-.08-4.62-.4-5.69,1.73-2.24,4.5,4.76,8.76,8,10.07,3,1.22,6.36,1.51,9.59,1.87,1.74.2,3.48.24,5.21.4.14,0,3.77,0,3.89.16.94,1,2.42-.51,1.49-1.49-.66-.69-1.48-.58-2.38-.62-2-.09-3.93-.17-5.9-.3-5.14-.36-10.66-.93-14.9-4.09a7.27,7.27,0,0,1-2.45-2.45c-1.31-2.85,1.78-3.27,3.72-3.16a34.26,34.26,0,0,1,7.78,1.27c4.47,1.32,11.2,5.44,12.37,10.37.32,1.32,2.34.76,2-.55Z"/><path class="cls-1" d="M38.58,164.2a32.42,32.42,0,0,1,4.36-12,21.58,21.58,0,0,1,4.46-4.93c.94-.81,2-2.12,3.24-2.35,2.1-.39,4.68,1.34,4.24,3.83-.69,3.89-4.25,6.52-6.94,9.11s-7,4.39-10.69,5.64c-1.27.43-.72,2.46.56,2a58,58,0,0,0,7.85-3.27c2.62-1.35,4.67-3.78,6.76-5.8,2.91-2.82,6.76-8.29,3.51-12.28-3.62-4.44-8.9.4-11.72,3.17-4.12,4-7.18,11.16-7.73,16.9-.13,1.35,2,1.34,2.1,0Z"/><path class="cls-1" d="M32.49,85.8a30.06,30.06,0,0,0,7.1-5c1.59-1.46,3.64-3.33,4.14-5.54.29-1.31-1.73-1.87-2-.55-.46,2-2.71,3.91-4.25,5.16a30.94,30.94,0,0,1-6,4.09c-1.23.55-.16,2.36,1.06,1.81Z"/><path class="cls-1" d="M33.12,63.93c-2.37-1.48-4.22-4.31-5.52-6.7s-2.89-4.55-3-7.38a1.05,1.05,0,0,0-2.1,0c.08,3.32,1.71,5.59,3.24,8.44s3.6,5.78,6.27,7.45c1.15.72,2.2-1.09,1.06-1.81Z"/><path class="cls-1" d="M29.52,108.09c-1-.38-1.81-1.84-2.47-2.6s-1.58-1.77-2.4-2.62S23,101.3,22.3,100.43s-1.09-1.85-1.84-2.65c-.92-1-2.4.5-1.48,1.48s1.34,2.14,2.2,3.08,2,2,3,3c1.44,1.57,2.77,3.94,4.82,4.73,1.26.49,1.81-1.54.56-2Z"/><path class="cls-1" d="M32.41,125.67c2.16,0,3.28-2.16,4.43-3.75.86-1.19,1.69-2.4,2.54-3.6.38-.53.85-1,1.21-1.53A8.4,8.4,0,0,1,41.77,115L40,114.55l0,.12a1.05,1.05,0,0,0,2-.56l0-.11a1.07,1.07,0,0,0-1.76-.47,10.6,10.6,0,0,0-1.48,2.14c-.56.8-1.19,1.55-1.74,2.37s-1.34,1.89-2,2.82c-.37.5-1.86,2.7-2.62,2.71a1.05,1.05,0,0,0,0,2.1Z"/><path class="cls-1" d="M19.44,142.38c3,.93,6,1.32,8.67,3.07,1.51,1,2.8,2.23,4.66,2.43,1.34.15,1.33-1.94,0-2.09-1.87-.21-4-2.49-5.67-3.28-2.25-1.06-4.74-1.41-7.1-2.15-1.29-.41-1.85,1.62-.56,2Z"/><path class="cls-1" d="M38.51,162.66c2.32-.37,4.79-3.17,6.39-4.73,2.09-2,4.32-4,6.24-6.12.9-1-.58-2.49-1.48-1.48-1.56,1.75-3.37,3.23-5,4.9s-4.28,5-6.68,5.41c-1.33.21-.77,2.23.55,2Z"/></g></svg>