<?xml version="1.0" encoding="UTF-8"?>
<svg id="Objects" xmlns="http://www.w3.org/2000/svg" viewBox="0 0 130.64 152">
  <defs>
    <style>
      .cls-1 {
        fill: #4a1533;
        stroke: #4a1533;
        stroke-miterlimit: 10;
      }
    </style>
  </defs>
  <path class="cls-1" d="m3.66,149.67c.48-6.67,3.37-14.21,6.11-20.25,2.74-6.03,6.95-11.29,12.05-15.49,5.85-4.82,12.82-8.4,19.84-11.17,6.59-2.6,13.5-3.97,20.2-6.22,11.1-3.74,21.31-11.17,27.82-20.97,3.48-5.23,5.89-11.34,8.18-17.15,2.82-7.14,4.03-13.74,4.12-21.41,0-.45-1.09-.22-1.09.14-.09,7.67-1.3,14.27-4.12,21.41-2.57,6.51-5.28,13.32-9.5,18.96-4.58,6.13-10.52,11.07-17.2,14.73-6.74,3.68-13.98,5.22-21.26,7.43-11.29,3.43-22.93,8.78-31.34,17.25-3.64,3.66-6.65,7.92-8.79,12.64-2.74,6.05-5.63,13.58-6.11,20.25-.03.44,1.07.23,1.09-.14h0Z"/>
  <path class="cls-1" d="m101.82,37.42c-2.43-.31-5.38-4.73-6.17-6.75-1.03-2.62-1.26-5.71-1.45-8.5-.27-3.94,1.7-22.73,10.03-18,2.25,1.28,3.51,5.84,3.93,8.16.57,3.13.64,7.8-.04,10.87-.7,3.16-2,6.31-3.45,9.17-.44.86-1.61,5.56-3.11,5.73-.53.06-.91.69-.15.6,2.03-.23,2.74-3.14,3.62-4.66,1.89-3.25,3.41-7.32,4.18-10.98,1.07-5.07,1.08-19.9-6.6-20.43-6.7-.47-9.03,10.4-9.51,15.2-.41,4.17-.04,9.2,1.45,13.14.91,2.4,3.83,6.7,6.59,7.05.35.04.56-.48-.06-.55l.73-.04Z"/>
  <path class="cls-1" d="m101.3,4.24c0-.06,0-.13,0-.19-.36.05-.73.09-1.09.14-.16,5.5-.97,11.14-1.57,16.62-.57,5.2-1.45,11.1.54,16.09.15.38,1.23.05,1.09-.29-2.16-5.42-1.01-11.75-.37-17.39.57-4.97,1.26-10.17,1.4-15.16.01-.45-1.08-.23-1.09.14,0,.06,0,.13,0,.19-.02.45,1.08.23,1.09-.14h0Z"/>
  <path class="cls-1" d="m101.65,4.79c1.06,6.02,1.62,11.76,1.11,17.89-.44,5.24.21,10.67-1.94,15.52-.15.33.93.22,1.09-.14,2.33-5.25,1.67-11.32,2.06-16.99.39-5.65-.25-11.01-1.23-16.57-.07-.37-1.16-.11-1.09.29h0Z"/>
  <path class="cls-1" d="m95.09,65.14h0c-.03.1-.06.21-.08.31.35-.09,0,0,.34-.09-1.28-1.56,5.59-6.26,6.7-7.06,3.31-2.38,6.94-4.16,10.99-4.82,4.48-.73,12.52-1.56,14.27,4.02,2.45,7.8-9.76,10.97-15.18,11.42-3.72.31-7.15-.34-10.69-1.43-1.92-.59-5.94-.65-6.68-2.79-.13-.38-.13-.36,0,0,.91,2.62,5.01,3.13,7.11,3.75,4.09,1.2,8.15,1.44,12.36.81,5.4-.82,17.15-4.87,14.01-12.52-2.53-6.16-12.89-4.61-17.8-3.27-3.7,1.01-7.18,2.97-10.19,5.32-1.18.92-6.76,4.92-5.21,6.82"/>
  <path class="cls-1" d="m95.35,65.36c7.53-7.58,20.66-8.8,30.86-8.81.41,0,1.16-.62.43-.62-10.67,0-24.57,2.14-32.46,10.08-.45.45.33.15.58-.1l.59-.55Z"/>
  <path class="cls-1" d="m95.67,65.1c2.94-2.43,9.61-2.09,12.89-2.11,2.89-.02,5.83-.26,8.69-.65,3.45-.47,8.26-2.08,9.31-5.87.11-.39-.99-.23-1.09.14-2.13,7.67-16.1,5.06-21.89,5.95-2.51.39-7.58-.08-8.93,2.52-.24.46.22.83.39.51l.63-.49Z"/>
  <path class="cls-1" d="m75.98,88.15c-2.08-1.16-3.1-4.27-4.04-6.36-1.14-2.54-2.03-5.19-2.64-7.91-.58-2.61-.91-5.27-1.04-7.94-.09-1.75-.23-3.6.1-5.33.58-3.04,2.7-6.29,6.75-2.85,3.79,3.22,5.29,10.38,5.07,15.12-.11,2.45-.86,4.72-1.46,7.08-.61,2.41-.95,5.63-2.31,7.76-.27.42.82.33,1.02.02,1.66-2.58,1.96-6.34,2.73-9.26.94-3.55,1.44-6.78.82-10.43-.72-4.27-3.61-13.35-9.48-12.59-5.91.77-4.49,10.39-4.03,14.28.5,4.26,1.62,8.43,3.38,12.34,1.03,2.29,1.96,5.31,4.26,6.6.31.17,1.32-.28.87-.53h0Z"/>
  <path class="cls-1" d="m75.94,87.93c0-6.06.89-12.53-1.49-18.24-.7-1.68-6.95-11.9-3.83-13.54.65-.34-.52-.22-.77.1-2.12,2.6.82,8.01,1.68,9.78,1.8,3.69,3.29,7.08,3.33,11.26.03,3.65,0,7.3,0,10.94,0,.34,1.09.13,1.09-.29h0Z"/>
  <path class="cls-1" d="m69.48,56.29c-1.77,5.26,5.4,8.95,7.4,13.2,2.81,5.99.07,12.27-2.3,17.96-.14.34.63,2.18.78,1.82,2.28-5.47,4.51-11.98,3.34-18.02-.47-2.44-2.1-4.8-3.77-6.59-2.28-2.43-5.62-4.72-4.35-8.51.12-.37-.97-.23-1.09.14h0Z"/>
  <path class="cls-1" d="m37.95,103.06c-3.91.27-6.26-9.23-6.96-12.02-.64-2.55-1.11-5.2-1.38-7.81-.25-2.5-.7-7.96,1.47-9.95,1.9-1.94,3.34-3.01,6.13-1.14.71.7,1.27,1.51,1.67,2.43.45.93.74,1.95,1.04,2.94.74,2.43,1.27,4.85,1.45,7.39.44,6.02-.15,11.63-2.02,17.35.36-.07.73-.14,1.09-.22-.09-.19-.17-.39-.26-.58-.17-.38-1.24-.04-1.09.29.09.19.17.39.26.58.17.37.99.1,1.09-.22,2.62-8,3.02-16.78.57-24.9-1.24-4.12-4.67-9.36-9.35-5.75-5.37,4.14-3.18,13.74-1.92,19.24.82,3.55,3,13.33,8.05,12.97.54-.04,1.31-.03.55.02l-.4-.62Z"/>
  <path class="cls-1" d="m31.97,71.77c4.32,4.79,6.48,9.65,6.47,16.13,0,5.48-1.02,9.45-1.16,14.92.36-.07.73-.14,1.09-.22-.19-5.2-1.54-10.03-3.73-14.76-.95-2.05-2.06-4-2.77-6.17-.2-.63-1.6-8.37-1.18-8.45.52-.09.9-.74.15-.6-.09.02-.19.03-.28.05-.2.04-.2,0-.26.25-1.03,4.51.54,9.81,2.45,13.78,2.54,5.31,4.3,10.88,4.52,16.81.01.34,1.08.12,1.09-.22.15-5.97,1.36-11,1.18-17.01-.18-6.02-2.59-10.54-6.56-14.94-.25-.28-1.3.11-1.02.43h0Z"/>
  <path class="cls-1" d="m48.99,100.89c3.1.01,6.19-.84,9.32-.97,3.76-.15,7.57-.16,11.3.46,4.69.78,17.38,4.83,15.22,11.79-1.2,3.86-12.99,2.51-16.12,1.91-3.24-.61-6.54-1.58-9.41-3.21-3.06-1.74-5.69-3.62-7.71-6.54-.91-1.32-1.55-3.14-2.97-4.02-.3-.19-1.31.26-.87.53,1.32.82,1.96,2.68,2.83,3.92,1.07,1.53,2.24,2.93,3.74,4.05,2.99,2.23,6.29,3.87,9.86,4.88,4.3,1.22,8.53,1.65,13.01,1.52,2.39-.07,6.22-.03,8.03-2,4.75-5.19-6.62-11.06-10.09-12.23-3.79-1.28-7.8-1.7-11.78-1.74-2.02-.02-4.05.03-6.07.13-2.57.14-5.31.91-7.85.9-.41,0-1.16.62-.43.62h0Z"/>
  <path class="cls-1" d="m48.08,100.86c3.76.05,7.54,1.39,11,2.81,3.45,1.42,6.1,4.03,9.33,5.77,4.95,2.66,11.2,2.72,16.69,2.72.41,0,1.16-.62.43-.62h-1.28c-.41,0-1.16.62-.43.62.11-.21.23-.41.34-.62-.45,0-.91,0-1.36,0-.87-.12-1.81-.03-2.7-.1-1.65-.12-3.14-.53-4.74-.84-1.97-.38-3.76-.5-5.58-1.43-1.66-.85-3.07-2.07-4.62-3.1-4.92-3.27-10.7-5.75-16.66-5.82-.41,0-1.65.52-.91.53l.49.09Z"/>
  <path class="cls-1" d="m53.42,101.24c3.07.28,6.29,1.48,9.36,1.66,1.84.11,3.64.05,5.45.52,2.1.54,4.07,1.73,6.06,2.55,1.77.73,3.68,1.32,5.35,2.26,1.51.85,2.7,2.13,4.28,2.86.32.15,1.32-.32.87-.53-1.37-.62-2.48-1.76-3.76-2.52-1.45-.86-3.05-1.45-4.61-2.09-3.02-1.23-5.85-2.88-9.09-3.41-2.78-.45-5.7-.49-8.52-.54-1.81-.03-6.82-1.17-7.84-2.77-.2-.3-1.49,1.52-1.24,1.9"/>
</svg>