<?xml version="1.0" encoding="UTF-8"?>
<svg id="Objects" xmlns="http://www.w3.org/2000/svg" viewBox="0 0 60.21 155.37">
  <defs>
    <style>
      .cls-1 {
        fill: #4a1533;
        stroke: #4a1533;
        stroke-miterlimit: 10;
      }
    </style>
  </defs>
  <path class="cls-1" d="m41.41,3.39c-12.95,7.98-23.88,21.25-30.29,34.88-7.43,15.79-13.21,37.96-4.04,54.19,3.6,6.37,10.15,12.8,16.78,15.97,6.58,3.14,13.86,1.47,19.9-2.15,6.51-3.91,9.22-10.49,11.36-17.45,1.28-4.16,1.42-8.21,1.49-12.55.08-5.02.25-9.9-.91-14.82-1.29-5.44-2.71-10.91-4.27-16.27-1.45-4.96-3.48-9.72-4.96-14.64-1.44-4.77-3.44-9.2-4.64-14.06-.56-2.27-.93-4.69-.82-7.04.07-1.62.64-2.93,1.18-4.32.29-.74-.33-1.52-1.12-1.42l-.34.18c.03.26-.12.2-.12.37-.01.88-.01,5.08,1.93.06.06-.15.13-.29.13-.46.01-.91-1.19-.69-2-.07-2.12,1.63-1.88,4.42-1.79,7.2.12,3.89,1.03,7.91,2.28,11.59,2.43,7.13,5.29,14.09,7.57,21.3,5.04,15.94,8.95,33.57,2.82,49.76-3.38,8.93-12.32,17.48-22.76,14.97-7.21-1.73-14.25-8.82-18.34-14.78-10-14.53-5.35-34.47.26-49.74,3.29-8.96,8.21-17.23,14.51-24.41,4.99-5.69,9.28-10.29,15.77-14.28-.55-.11.65-1.59.1-1.7-.04.04-.07.08-.11.12"/>
  <path class="cls-1" d="m38.79,5.27c-2.06,6.22-3.86,12.33-6.13,18.49-2.22,5.99-4.34,11.98-5.75,18.22-2.79,12.41-3.72,25.52-3.05,38.22.69,13.03,3.49,25.96,7.06,38.48,3.42,12,7.7,23.76,13.69,34.73.39.72,2.46.02,2.14-.57-6-10.97-10.27-22.73-13.69-34.73-3.44-12.07-6.15-24.5-6.97-37.04-.85-13.04.11-26.59,2.97-39.35,1.4-6.24,3.53-12.23,5.75-18.22,2.28-6.15,4.12-12.41,6.18-18.64.24-.73-1.72-.47-1.96.25l-.22.17Z"/>
  <path class="cls-1" d="m32.98,12.78s0-.09,0-.13c.31-3.84-2.12-.25-2.14.42-.12,4.96-.48,10.61-.04,15.57.04.44.48-.36.69-.43,1.9-.6,3.62-2.02,5.17-3.26,1.16-.93,2.37-1.81,3.54-2.73.63-.5,1.18-1.5,1.8-1.91,1.21-.79-.64-1.08-1.33-.63-1.41.92-2.62,2.38-3.97,3.46-1.61,1.28-5.43,2.21-5.5,4.01.4.08.81.17,1.21.25-.43-4.86.44-9.75.56-14.6-.71.14-1.42.28-2.14.42v.13c0,.66,2.14.26,2.14-.57h0Z"/>
  <path class="cls-1" d="m23.53,19.71c.91,5.01,1.79,10.28,2.28,15.34.14,1.48.62,3.73,1.56,4.98.29.38,1.4-.1,1.65-.56,2.09-3.86,6.01-6.45,9.71-8.53,2.24-1.26,3.91-3.02,5.97-4.53.95-.69-1.03-.81-1.52-.49-.06.04-.12.08-.18.12-1.2.79.56.35,1.33.63.36.13.12-.08.18-.12-.51-.16-1.01-.33-1.52-.49-1.5,1.1-2.87,2.55-4.39,3.57-1.56,1.05-3.32,1.68-4.86,2.77-2.51,1.78-6.91,3.68-6.41,6.78.55-.19.8-.13,1.35-.32,0,0-1.04-6.51-1.16-7.21-.73-4.16-1.09-8.36-1.85-12.51-.13-.73-2.28-.21-2.14.57h0Z"/>
  <path class="cls-1" d="m18.16,26.61c-1.15.59-.83,1.51-.61,2.65.64,3.29,1.56,6.61,2.54,9.81.99,3.23,1.89,6.57,3.02,9.74.43,1.21.78,2.33,2.21,2.51,1.12.15,1.7-.51,2.48-1.16,2.58-2.15,5.13-4.11,7.87-6.08,4.33-3.1,7.57-5.98,11.51-9.56-.36-.7-.03-.48-.6-.6-.11.11-.22.22-.33.33-.88.88.88,1.43,1.38.93.11-.11-.66.33-.55.23.89-.89,0-1.94-.5-1.48-5.92,5.38-13.04,9.21-19.05,14.45-.71.62-.99,1.42-1.71,1.05-.47-.25-.72-1.48-.89-2-.81-2.53-1.49-5.11-2.31-7.65-.36-1.13-3.17-11.61-3.15-12.54.03-1.59-.62-1-1.33-.63h0Z"/>
  <path class="cls-1" d="m11.6,37.8c2.24,5.75,4.54,11.5,6.72,17.26.91,2.4,1.94,4.8,3.28,7,.48.79,1.52,3.37,2.51,3.86.51.25,1.54.01,1.85-.49,1.16-1.94,3.79-3.44,5.41-5.01,2.37-2.29,5.05-4.22,7.48-6.44,2.12-1.94,4.37-3.21,6.16-5.5,1.69-2.15,3.13-4.5,4.78-6.65-.66-.01-1.33-.03-1.99-.04-.11.17-.21.35-.32.52-.51.85,1.62.65,1.99.04.11-.17.21-.35.32-.52.54-.89-1.61-.55-1.99-.04-1.53,2-2.85,4.19-4.42,6.19-2.17,2.75-5.32,5.02-7.99,7.34-2.32,2.02-4.7,3.93-6.98,5.99-1.45,1.31-4.45,2.1-4.44,4.08.62-.16,1.23-.33,1.85-.49.13-.97-2.74-4.72-3.07-5.33-1.22-2.2-1.95-4.48-2.92-6.78-2.16-5.14-4.06-10.35-6.08-15.55-.29-.74-2.4-.11-2.14.57h0Z"/>
  <path class="cls-1" d="m6.21,51.47c1.29,6.83,5.29,11.26,9.05,16.86,1.8,2.68,3.7,5.03,5.75,7.49,1.41,1.69,2.26,4.37,4.1,5.62.44.3,1.61-.02,1.85-.49,1.61-3.25,4.64-5.69,7.17-8.22,2.58-2.57,4.35-5.55,6.77-8.23,2.48-2.75,5.01-5.44,7.53-8.15,1.77-1.9,3.52-4.57,3.81-7.22.09-.85-1.91-.86-1.99-.13-.42,3.82-3.56,6.89-6.04,9.5-2.31,2.44-4.73,4.98-6.74,7.68-2.07,2.79-4.13,5.29-6.6,7.76-2.17,2.17-4.52,4.17-5.91,6.97l1.85-.49c-.64-1.62-2.98-4.49-4.45-6.11-1.93-2.14-3.52-4.39-5.13-6.8-3.64-5.47-7.63-9.93-8.89-16.59-.14-.73-2.29-.21-2.14.57h0Z"/>
  <path class="cls-1" d="m3.01,64.89c1.54,2.12,2.58,4.7,4.04,6.89,1.96,2.93,4.5,5.4,6.79,8.06,2.13,2.46,4.29,4.8,6.57,7.1,1.58,1.6,2.3,3.96,4.45,4.94.51.23,1.55.03,1.85-.49.94-1.71,3.05-2.83,4.42-4.14,1.45-1.38,2.5-3,3.66-4.62,2.16-3.04,4.51-5.91,6.87-8.77,2.55-3.09,5.49-5.9,7.54-9.37,1.63-2.77,2.64-5.98,3.68-9.06.31-.93-.45-1.86-1.42-1.74,0,0-.01,0-.02,0,0,.11,0,.22,0,.34-.02.88,2.12.44,2.14-.27,0-.11,0-.22,0-.34.03-.94-1.91-.35-2.14.27-1.44,3.95-2.6,8.32-4.92,11.85-2.24,3.4-5.31,6.56-8.03,9.6-2.19,2.45-4.18,5.27-6.05,7.98-1.49,2.16-3.11,3.86-5.11,5.56-.9.77-2.83,1.52-2.61,2.68.62-.16,1.23-.33,1.85-.49-.67-1.77-1.76-2.38-2.89-3.66-.82-.92-1.91-1.59-2.79-2.47-2.12-2.09-3.94-4.47-5.9-6.7-2.04-2.32-4.23-4.5-5.95-7.08-1.47-2.21-2.49-4.76-4.04-6.89-.42-.58-2.49.14-1.98.84h0Z"/>
  <path class="cls-1" d="m3.03,79.74c1.24,1.23,1.74,2.3,2.98,3.53,1.45,1.44,3.29,2.48,4.72,3.95,2.4,2.46,4.67,5,7.16,7.37,3.52,3.35,9.03,6.89,12.99,2.85,5.19-5.28,9.82-11.09,14.38-16.88,4.44-5.64,10.54-10.16,10.49-18.01,0-.65-1.33-.39-1.56-.25-.07.04-.14.08-.21.12-1.23.74.63,1.05,1.33.63.07-.04-.35-4.58.21-.12-.58-.01-1.15-.02-1.73-.03.05,7.07-5.55,11.6-9.67,16.61-4.14,5.03-8.12,10.22-12.56,15.01-.72.78-2.2,3.1-3.18,3.43-1.37.46-3.79-.94-4.97-1.59-2.7-1.48-4.3-3.74-6.5-5.74-2.08-1.9-3.89-4.03-6.06-5.82-2.37-1.95-4.07-4.17-6.22-6.3-.53-.52-2.29.21-1.72.77l.14.48Z"/>
  <path class="cls-1" d="m7.75,93.44c1.9,4.18,6.58,8.09,10.81,9.76,2.49.99,5.29,2.17,7.89,2.81,1.46.36,2.23.19,3.44-.5,5.23-3,10.23-6.75,14.76-10.72,4.75-4.16,9.25-7.76,11.37-13.87.13-.37-.44-.45-.65-.47-.1,0-.21-.02-.31-.03-.82-.08-2.27,1.07-.83,1.21.1,0,.21.02.31.03-.22-.16.04-2.33-.17-2.49-1.96,5.64-6.55,11.08-10.96,14.85-3.78,3.23-7.74,6.35-11.95,8.97-1.87,1.16-2.28,2.18-4.35,1.56-2.24-.68-4.68-1.47-6.83-2.38-3.98-1.68-8.68-5.06-10.51-9.08-.34-.74-2.29-.29-2,.36h0Z"/>
</svg>