<?xml version="1.0" encoding="UTF-8"?>
<svg id="Objects" xmlns="http://www.w3.org/2000/svg" viewBox="0 0 183.1 119.05">
  <defs>
    <style>
      .cls-1 {
        fill: #4a1533;
        stroke: #4a1533;
        stroke-miterlimit: 10;
      }
    </style>
  </defs>
  <path class="cls-1" d="m28.33,39.04c2,9.43,12.87,16.49,22.38,13.93,9.79-2.64,14.27-14.11,13.5-23.35-.78-9.38-7.07-19.34-15.13-24.24C39.74-.31,25.16.39,16.14,6.35-4.48,19.94,1.28,53.89,14.06,70.89c15.16,20.17,44.72,26.15,68.57,22.75,15.56-2.22,30.54-8.02,44.2-15.66,7.01-3.92,13.84-8.32,20.28-13.12,6.36-4.73,11.37-10.49,17.12-15.86,1.06-.99-.54-2.59-1.6-1.6-4.16,3.89-7.75,8.28-12.14,11.94-4.74,3.96-9.86,7.44-15.04,10.77-9.97,6.42-20.51,11.98-31.71,15.92-22.02,7.74-47.31,8.83-68.85-1.25C14.67,75.33,3.81,53.87,5.18,31.88c.76-12.13,7.22-23.74,19.63-26.93,10.45-2.68,22-.7,29.21,7.65,7.44,8.62,11.35,21.41,4.49,31.59-3.58,5.31-9.07,8.12-15.47,6.46-6.12-1.59-11.19-5.91-12.53-12.23-.3-1.42-2.48-.82-2.18.6h0Z"/>
  <path class="cls-1" d="m164.2,47.47c.19-6.35,2.74-11.19,6.66-16.05,1.38-1.72,6.97-7.31,7.15-2.09.1,2.96-2.55,6.53-4.45,8.63-1.76,1.95-3.96,3.27-5.91,4.98-.68.6-3.15,4.07-4.11,3.92-1.48-.24-2.56-6.05-2.86-7.5-.45-2.16-.79-4.13.43-6.22.95-1.63,1.26-2.41,1.56-.69.81,4.62-.49,9.17-1.32,13.64-.28,1.54-.5,3.64,1.62,3.62.58,0,1.2-.55,1.68-.75,1.45-.62,3.05-1,4.63-1.12,2.33-.17,5.03-.3,6.95,1.04,2.08,1.45,2.12,4.06-.9,4.77-1.68.4-3.97-.28-5.41-.94-2.22-1.01-6.1-2.6-6.81-5.12-.36.48-.73.95-1.09,1.43.23-.02.46-.04.69-.06,1.44-.12,1.45-2.38,0-2.26-.23.02-.46.04-.69.06-.72.06-1.3.68-1.09,1.43,1.08,3.84,5.88,5.94,9.39,7.19,2.76.98,8.46,1.56,10.18-1.56,1.47-2.66-.97-5.39-2.98-6.86-2.05-1.5-3.49-1.37-5.97-1.35-1.2,0-2.34-.05-3.54.1-1.04.13-2.6.92-3.61.84-.67-.05-.53.62-.86.12-.29-.44.72-3,.82-3.4.64-2.56.67-4.89.61-7.55-.04-1.68.71-6.46-1.87-6.86-3.02-.47-5.01,4.95-5.11,7.13-.2,4.26,1.72,9.91,4.5,13.14.26.31.73.38,1.1.29,2.06-.49,3.89-3.12,5.39-4.51,2.3-2.12,4.91-3.77,6.93-6.22,2.47-3.01,6.65-9.48,3.05-13.16-3.44-3.52-8.13,2.31-10.04,4.71-4.16,5.25-6.77,10.43-6.97,17.21-.04,1.45,2.22,1.45,2.26,0h0Z"/>
  <path class="cls-1" d="m141.95,64.65c-.03.11-.05.21-.08.32.55-.23,1.11-.45,1.66-.68-1.59-.81-2.17-4.37-2.43-5.91-.23-1.33-.41-2.67-.51-4.01-.13-1.78-.62-2.88,1.12-3.66,1.92-.87,1.52.35,1.68,2.12.11,1.17.13,2.39.1,3.56-.07,3-.61,6.03-1.55,8.88.74.1,1.48.2,2.22.3l.02-.26c.11-1.45-2.15-1.44-2.26,0l-.02.26c-.1,1.32,1.84,1.46,2.22.3.9-2.7,4.34-21.82-3.18-18.74-3.67,1.5-2.78,6.35-2.38,9.46.36,2.76.93,8.16,3.84,9.65.63.32,1.47.07,1.66-.68.03-.11.05-.21.08-.32.36-1.41-1.82-2.01-2.18-.6h0Z"/>
  <path class="cls-1" d="m141.15,65.61c-.05.07-.11.13-.16.19-.35.43-.41.87-.18,1.37,2.24,4.85,5.52,8.36,10.76,9.94,3.23.97,8.46,1.12,10.25-2.41,2.07-4.09-2.05-6.25-5.39-7.13-2.63-.69-5.1-1.3-7.8-1.51-2.39-.18-4.69.88-7.09.27.17.63.33,1.26.5,1.89.11-.09.23-.19.34-.28,1.13-.92-.48-2.51-1.6-1.6-.11.09-.23.19-.34.28-.67.55-.27,1.69.5,1.89,2.32.59,4.58-.09,6.9-.08,3.06.02,6.12.7,9.05,1.58.57.21,1.14.42,1.7.64.08,1.36.17,2.72.25,4.07-.34.5-2.23.65-2.77.69-1.97.16-3.94-.37-5.72-1.17-3.74-1.69-5.91-4.58-7.59-8.2-.06.46-.12.91-.18,1.37.05-.06.11-.13.16-.2.91-1.12-.68-2.73-1.6-1.6h0Z"/>
  <path class="cls-1" d="m121.13,78.43c-2.46-.78-4.38-6.05-4.83-8.22-.5-2.43-.54-4.93.16-7.32.42-1.45,1.8-4.81,3.08-1.75,1.03,2.45.15,6.98.15,9.48,0,2.28.37,6.34-.93,8.32-.8,1.22,1.15,2.35,1.95,1.14.94-1.42.89-3.57,1.05-5.24.33-3.47.22-7,.22-10.48,0-2.31-.08-8.73-4.12-7.44-3.94,1.26-4.42,8.72-4.06,11.86.42,3.73,2.65,10.52,6.74,11.82,1.39.44,1.98-1.74.6-2.18h0Z"/>
  <path class="cls-1" d="m119.37,78.75h-.2v2.26c4,0,7.94.04,11.88.87,1.52.32,3.24.59,4.69,1.18,2.15.86,4.98,4.26,1.2,5.5-3.87,1.26-8.63-2-11.31-4.47-.89-.82-4.58-3.09-4.79-4.13-.29-1.42-2.47-.82-2.18.6.28,1.37,1.55,2.08,2.59,2.9,2.62,2.08,5.08,4.2,8.01,5.88,3.04,1.74,8.45,2.78,11.26-.01,3.01-2.99-.17-6.58-3.09-8-5.41-2.63-12.41-2.56-18.25-2.56-1.45,0-1.46,2.26,0,2.26h.2c1.45,0,1.46-2.26,0-2.26h0Z"/>
  <path class="cls-1" d="m98.25,87.49c-3.12-.26-1.61-10.93-1.22-12.61.34-1.46,2.58-9.71,4.64-8.36,1.16.76.9,4.33.78,5.59-.18,1.94-.77,3.84-1.43,5.67-.67,1.86-1.46,3.67-2.17,5.51-.68,1.77-1.02,3.84-1.94,5.49-.71,1.27,1.24,2.41,1.95,1.14,1.44-2.58,2.04-5.73,3.15-8.49,1.21-3.02,2.41-6.06,2.7-9.32.21-2.37-.43-10.18-4.62-8.26-3.73,1.7-5.35,9.86-5.76,13.27-.42,3.57-1.18,12.21,3.91,12.64,1.45.12,1.44-2.14,0-2.26h0Z"/>
  <path class="cls-1" d="m96.22,88.74c-2.69,1.18-.01,6.25.89,7.94,2.57,4.81,8.16,7.09,13.4,7.18,4.7.08,4.92-5.48,2.32-8.21-2.14-2.24-5.4-3.62-7.93-5.43-2.38-1.71-4.84-1.96-7.45-3.05-1.34-.56-1.93,1.63-.6,2.18,1.4.58,2.9.7,4.31,1.31,1.52.67,2.73,1.67,4.06,2.64,1.47,1.07,3.12,1.81,4.61,2.83,1.24.84,1.38,1.07,1.95,2.6,1.06,1.31.74,1.99-.96,2.04-.81.61-1.65.72-2.51.32-3.45-.16-6.59-1.67-8.6-4.52-.25-.36-2.95-5.61-2.36-5.87,1.33-.58.18-2.53-1.14-1.95h0Z"/>
  <path class="cls-1" d="m65.91,91.83c-2.04-2.4,1.16-10.22,2-12.9.7-2.2,1.5-4.42,2.7-6.4.88-1.45,5.63-7.06,6.46-2.21.56,3.24-3.83,8.96-5.56,11.46-1.18,1.71-2.34,3.42-3.49,5.14-.37.56-1.84,3.41-2.55,3.5-1.42.18-1.44,2.45,0,2.26,1.82-.23,2.52-1.76,3.5-3.18,2.26-3.26,4.69-6.52,6.68-9.95,1.56-2.68,6.52-11.03,1.9-13.32-4.87-2.41-9.29,5.49-10.63,8.76-1.55,3.8-2.66,7.94-3.42,11.98-.4,2.11-.67,4.74.8,6.47.94,1.11,2.53-.5,1.6-1.6h0Z"/>
  <path class="cls-1" d="m65.47,91.97l-.09-.25c-.3-.81-1.63-1.24-2.07-.27-1.05,2.31-.58,5.62-.36,8.1.27,3.02,1.09,6.01,2.54,8.68,1.61,2.97,5.27,5.9,8.86,4.3,3.95-1.76,2.71-7.97.79-10.76-1.78-2.58-4.54-4.56-6.65-6.88-1.6-1.76-3.24-3.66-5.57-4.41-.55-.18-1.28.21-1.39.79-.02.11-.04.22-.06.33-.27,1.42,1.91,2.03,2.18.6.02-.11.04-.22.06-.33-.46.26-.93.53-1.39.79,3.11,1,5.22,4.76,7.5,6.89,1.4,1.31,3.01,2.52,3.93,4.24.93,1.73,1.64,5.38-.37,6.46-3.63,1.94-6.28-3.38-7.16-6-.65-1.93-1-3.95-1.09-5.99-.07-1.58-.53-4.23.13-5.68-.69-.09-1.38-.18-2.07-.27.03.08.06.16.09.25.49,1.36,2.68.77,2.18-.6h0Z"/>
  <path class="cls-1" d="m35.25,85.65c.72-4.71,5.66-9.93,8.49-13.55,1.7-2.17,3.37-4.15,5.63-5.75.85-.6,1.87-1.39,2.8-1.84.62-.63,1.37-.81,2.24-.53,1.4-.41,1.77.01,1.11,1.26-.04,3.49-4.03,7.13-6.4,9.1-2.34,1.96-4.52,4.28-7.06,5.98-1.45.97-5.15,3.82-6.7,3.9-1.44.08-1.46,2.25,0,2.26.09,0,.17,0,.26,0,1.45,0,1.46-2.25,0-2.26-.09,0-.17,0-.26,0v2.26c3.16-.17,5.28-2.54,7.84-4.21,3.14-2.04,5.96-4.91,8.77-7.38,2.55-2.23,7.62-8.58,5.78-12.44-2.15-4.51-9.48,1.69-11.53,3.47-2.98,2.57-5.31,6.08-7.57,9.27-2.03,2.86-5.03,6.29-5.58,9.85-.22,1.42,1.96,2.04,2.18.6h0Z"/>
  <path class="cls-1" d="m35,84.05c-1.52,2.77-1.64,6.29-2,9.38-.47,3.96-.76,7.93-.75,11.92.01,3.64,2.25,12.47,7.38,11.92,4.66-.49,3.78-8.86,3.29-11.92-.52-3.25-1.47-6.42-2.82-9.43-.76-1.68-1.76-3.17-2.62-4.79-.67-1.26-2.25-3.92-2.21-5.31h-2.26v.25c0,1.45,2.26,1.46,2.26,0v-.25c0-1.46-2.21-1.45-2.26,0-.09,2.98,2.29,5.9,3.71,8.43,2.58,4.59,4.38,10.18,4.34,15.49,0,.84.18,2.79-.48,3.51-2.43,2.62-3.69-.21-4.56-1.76-1.6-2.85-1.55-5.71-1.48-8.86.06-2.61.26-5.21.54-7.81.34-3.08.33-6.87,1.86-9.65.7-1.27-1.25-2.42-1.95-1.14h0Z"/>
</svg>