<?xml version="1.0" encoding="UTF-8"?>
<svg id="Objects" xmlns="http://www.w3.org/2000/svg" viewBox="0 0 86.47 169.16">
  <defs>
    <style>
      .cls-1 {
        fill: #4a1533;
        stroke: #4a1533;
        stroke-miterlimit: 10;
      }
    </style>
  </defs>
  <path class="cls-1" d="m16.88,166.08c-.2.06-.4.12-.59.17.45.09.9.18,1.35.28-1.5-14.86-2.63-29.7.07-44.49,2.48-13.6,5.9-27.4,11.01-40.26,9.78-24.58,25.96-46.75,45.68-64.27,1.02-.91-1.32-.91-1.91-.39-19.6,17.42-35.6,39.27-45.59,63.57-5.54,13.48-9.17,28.08-11.71,42.41-2.6,14.65-1.42,29.37.06,44.07.05.5,1.1.35,1.35.28.2-.06.4-.12.59-.17,1.41-.41,1.11-1.61-.32-1.19h0Z"/>
  <path class="cls-1" d="m68.28,21.76c-1.1-4.06,1.46-8.31,4.1-11.23,2.22-2.46,6.89-6.51,10.34-7.06-.34-.11-.69-.23-1.03-.34.5,3.77-1.11,8.89-2.22,12.46-.57,1.84-1.13,3.85-2.38,5.35-.87,1.06-9.42,5.96-9.34,1.79.02-.98-2.37-.49-2.38.3-.1,5.59,9.63,1.64,12.1-.26,2.61-2.02,3.61-4.95,4.54-8,1.1-3.6,2.56-8.52,2.06-12.27-.05-.38-.78-.38-1.03-.34-4.08.65-8.85,4.31-11.77,7.12-3.32,3.18-6.65,8.38-5.37,13.13.22.83,2.61.19,2.38-.64h0Z"/>
  <path class="cls-1" d="m52.15,40.04c-2.52-1.12-2.82-5.5-3.14-7.84-.28-2.1-1.24-6.9.12-8.77.63-.87-1.76-.68-2.22-.05-1.63,2.24-.61,6.98-.28,9.46.35,2.64.78,7.09,3.62,8.36.71.31,2.88-.72,1.89-1.15h0Z"/>
  <path class="cls-1" d="m48.61,33.38c-2.85,1.65-5.21-4.12-5.68-5.84-.7-2.58-.9-5.37-.42-8.01.62-3.39,3.74-8.99,6.95-10.81-.64-.01-1.29-.02-1.93-.03.79,3.65,1.64,7.63,2.13,11.33.41,3.08,2.58,12.44-1.8,13.91-1.38.47-1.1,1.67.32,1.19,3.91-1.32,5.02-5.68,4.68-9.51-.51-5.81-1.73-11.88-2.96-17.56-.15-.72-1.58-.23-1.93-.03-2.31,1.31-4.53,4.55-5.88,6.75-1.96,3.2-2.55,6.95-2.11,10.65.6,4.96,4.19,12.09,10.09,8.67,1.38-.81-.7-1.16-1.48-.71h0Z"/>
  <path class="cls-1" d="m40.74,54.71c.52,1.07,1.47,1.22,2.6,1.4,3.22.52,6.83.06,10.09.03,4.27-.04,9.2-1.47,12.82-3.78,1.35-.86-.71-1.2-1.48-.71-3.12,1.99-7.41,3.04-11.01,3.13-2.02.05-9.74,1.13-10.63-.72-.39-.82-2.72-.07-2.38.64h0Z"/>
  <path class="cls-1" d="m56.17,55.86c-.57-.12,2.55-4.1,2.89-4.42,1.62-1.51,3.62-2.37,5.73-2.94,1.45-.39,9.33-2.29,9.45.1.03.6-4.28,4.98-4.3,5-2.21,2.1-10.99,6.46-13.05,2.06-.38-.82-2.71-.07-2.38.64,1.94,4.15,8.55,2.19,11.69,1.01,2.62-.98,4.83-2.35,6.69-4.47,1.37-1.56,3.95-3.7,4.64-5.7.1-.3-.25-.43-.46-.5-6.51-1.99-23.13.99-23.05,10.14,0,.19.34.3.46.33.07.01.15.03.22.05.76.16,2.8-1.02,1.46-1.29h0Z"/>
  <path class="cls-1" d="m32.33,69.87c-4.4,0-7.67-8.12-9.02-11.36-.69-1.67-1.43-3.45-1.8-5.22-.24-1.16-.1-2.31-.72-3.34-.4-.67-2.72.09-2.21.93.51.85.35,2.1.55,3.05.25,1.2.74,2.36,1.16,3.51.96,2.59,2.19,5.08,3.6,7.46,1.8,3.04,3.69,6.32,7.52,6.32.9,0,2.53-1.35.93-1.35h0Z"/>
  <path class="cls-1" d="m23.98,63.17c-7.33,2.66-9.89-7.25-9.51-12.27.28-3.76,1.29-8.95,3.13-12.3-.74.15-1.48.29-2.21.44,1.39,1.01,2.05,2.88,2.88,4.35,1.35,2.38,2.76,4.64,3.78,7.18.73,1.83,4.28,11.46,1.19,12.48-1.38.46-1.1,1.66.32,1.19,4.28-1.41,3.39-5.76,2.51-9.41-.83-3.47-2.33-6.76-4.07-9.86-1.18-2.1-2.36-5.4-4.4-6.88-.56-.4-1.86-.21-2.21.44-1.37,2.5-1.9,5.59-2.56,8.34-.94,3.89-1.2,7.92.25,11.72,2.02,5.27,6.56,7.46,11.85,5.54,1.56-.57.14-1.37-.94-.98h0Z"/>
  <path class="cls-1" d="m24.26,90.82c3.66.2,7.06-.51,10.48-1.79,3.75-1.4,6.9-4.19,10.58-5.55,1.56-.58.14-1.38-.94-.98-2.14.79-4.1,2.41-6.11,3.51-4.04,2.2-8.43,3.71-13.08,3.46-.91-.05-2.53,1.26-.93,1.35h0Z"/>
  <path class="cls-1" d="m38.62,86.64c-2.11-4.02,4.1-6.77,7.11-7.66,3.2-.94,6.41-1.31,9.73-1.44-.16-.29-.33-.58-.49-.87-2.66,1.98-4.09,5.15-6.52,7.41-1.5,1.4-9.88,6.46-10.62,2.03-.13-.8-2.53-.24-2.38.64.67,4.05,6.69,2.42,9.31,1.39,2.29-.9,4.24-2.35,5.98-4.06,2.22-2.17,3.64-5.17,6.13-7.02.57-.43.02-.89-.49-.87-4.99.2-10.21.84-14.79,3.01-3.01,1.43-7.33,4.3-5.34,8.08.42.81,2.73.04,2.38-.64h0Z"/>
  <path class="cls-1" d="m20.01,104.48c-1.28.45-5.35-5.62-6.02-6.5-2.3-3.03-2.95-6.06-4.23-9.48-.31-.83-2.67-.13-2.38.64.94,2.53,1.39,5.07,2.79,7.45,1.1,1.86,2.53,3.55,3.9,5.21,1.93,2.34,3.68,4.79,6.88,3.67,1.57-.55.14-1.36-.94-.98h0Z"/>
  <path class="cls-1" d="m13.73,96.65c-.51,2.13-4.21.72-5.19.13-.67-.41-1.37-1.26-1.84-1.91-1.35-1.9-2.03-4.18-2.34-6.47-.44-3.26-.1-9.24,2.12-12-.69.18-1.37.37-2.06.55,1.45.66,2.72,3.3,3.61,4.58,1.19,1.71,1.97,3.57,2.97,5.38.55.99,1.27,1.83,1.87,2.77,1.36,2.15,1.38,4.4,1.37,6.88.79-.16,1.59-.31,2.38-.47v-.18c0-.73-2.38-.29-2.38.64v.18c0,.72,2.38.28,2.38-.47.01-1.82.14-3.84-.48-5.59-.69-1.96-2.32-3.58-3.27-5.43-.92-1.79-1.78-3.46-2.96-5.11-.94-1.32-2.1-3.65-3.6-4.34-.65-.3-1.62.01-2.06.55-1.81,2.24-2.51,7.15-2.49,9.92.03,4.05,1.07,8.29,4.15,11.08,2.4,2.18,9.13,3.33,10.17-1,.21-.87-2.19-.51-2.38.3h0Z"/>
  <path class="cls-1" d="m16.57,123.1c4.59.92,9.28-.65,13.62-2.1,2.36-.79,4.68-1.76,6.73-3.19,1.71-1.19,3.28-3.34,5.22-4.14,1.53-.64.14-1.43-.94-.98-2.97,1.24-5.08,4.21-7.98,5.7-4.11,2.11-10.54,4.34-15.18,3.41-.76-.15-2.8,1.02-1.46,1.29h0Z"/>
  <path class="cls-1" d="m28.74,120.89c2.38-3.62,4.19-7.84,8.17-9.95,3.21-1.7,6.72-2.51,10.23-3.3-.42-.04-.84-.09-1.26-.13,1.03,1.28.57,4.62.21,6.02-.73,2.81-2.84,4.73-5.34,5.98-2.65,1.32-5.72,2.28-8.69,1.83-1.65-.25-2.56-.83-4.23-.89-.9-.03-2.53,1.29-.93,1.35,1.36.05,2.71.88,4.08,1.04,1.41.17,3.01.03,4.41-.21,2.65-.45,5.45-1.52,7.77-2.88,2.1-1.23,3.79-2.9,4.76-5.16.85-1.95,1.62-6.23.16-8.03-.26-.33-.93-.21-1.26-.13-3.82.87-7.84,1.63-11.35,3.5-4.3,2.29-6.41,7.02-8.95,10.89-.6.91,1.79.71,2.22.05h0Z"/>
</svg>