<svg xmlns="http://www.w3.org/2000/svg" viewBox="0 0 48.77 112.77"><defs><style>.cls-1{fill:#4a1533;}</style></defs><title>Plan de travail 58</title><g id="Objects"><path class="cls-1" d="M21.39,50.84,21,50.61c-.67-.34-2.4.07-2.37,1a102.54,102.54,0,0,0,3.11,22.6c1.32,5,3.57,10.66,8,13.68a8.85,8.85,0,0,0,13.89-8.62C42.39,70,32,73.82,29.74,80.29c-3.9,11.32.48,22.95,9.59,30.15.73.58,3.17-.46,2.45-1-6.07-4.79-10.15-11.08-10.71-19a28.13,28.13,0,0,1,1-9.44c.34-1.21.68-2.82,1.6-3.75,4.8-4.85,7.21.1,7.39,3.22.37,6.39-6.39,9.32-11.08,4.45-2.63-2.74-4.17-6.38-5.25-10A96,96,0,0,1,21.22,50.9l-2.37,1,.44.22c.76.4,3.18-.71,2.1-1.27Z"/><path class="cls-1" d="M25,67.08C16.76,73.75,10.56,62.19,8.6,55.73a38.22,38.22,0,0,1-.75-19.4,52.45,52.45,0,0,1,7.56-18.45c1.47-2.14,3-4.32,4.63-6.33,1-1.24,3.63-5.8,5.23-6.24l-1.4-.14c1.22,1.8,1.36,4.39,1.7,6.47.46,2.73,1,5.45,1.5,8.18,1,5.77,1.9,11.69,2.35,17.53a73.44,73.44,0,0,1-1,16.62,53.31,53.31,0,0,1-1.21,6.77c-.42,1.45-1.69,6.25-3.49,6.9s-.15,1.51,1,1.08c3.13-1.12,4.59-6.22,5.3-9A73.52,73.52,0,0,0,32.2,41.82,136.46,136.46,0,0,0,30,20.88c-.54-3.33-1.24-6.63-1.79-9.95-.39-2.3-.56-4.82-1.89-6.79-.24-.36-1.07-.23-1.4-.14-2.39.65-3.37,2.38-4.77,4.32-2.45,3.42-5.24,6.57-7.58,10.09a50.59,50.59,0,0,0-8.36,26.5c0,11.24,8.49,34.27,22.9,22.61,1.16-1-1.45-1-2.12-.44Z"/></g></svg>