<?xml version="1.0" encoding="UTF-8"?>
<svg id="Objects" xmlns="http://www.w3.org/2000/svg" viewBox="0 0 55.35 168.24">
  <defs>
    <style>
      .cls-1 {
        fill: #4a1533;
        stroke: #4a1533;
        stroke-miterlimit: 10;
      }
    </style>
  </defs>
  <path class="cls-1" d="m39.94,122.01c-24.66-4.32-30.08-30.64-32.69-51.4-1.38-10.95-.95-21.92-1.04-32.93-.05-5.47-.03-10.88.52-16.33.6-5.93,1.86-11.41,3.04-17.18-.56.32-1.12.63-1.68.95,1.55.54,2.91,4.39,3.59,5.66,1.3,2.41,2.91,4.61,4.39,6.9,2.82,4.37,5.2,9.08,7.54,13.72,5.28,10.47,9.04,21.61,13.5,32.43,4.45,10.81,9.43,20.99,11.6,32.57,1.16,6.22,1.6,13.35-.29,19.49-.72,2.35-1.95,3.93-4.05,5.08-.34.18-4.38,1.87-4.49,1.65-.78-1.57-3.14-.19-2.35,1.38,1.27,2.54,5.21.66,7.02-.13,3.93-1.7,5.89-4.39,6.79-8.55,3.02-14.01-1.23-28.2-6.72-41.02-5.85-13.67-10.7-27.89-17.16-41.27-3.19-6.61-6.65-13.1-10.7-19.23-2.02-3.06-4.13-10-7.94-11.32-.66-.23-1.54.26-1.68.95-1.12,5.44-2.38,10.58-2.96,16.15-.66,6.34-.73,12.58-.69,18.94.08,12.71.05,25.09,1.82,37.71,1.53,10.97,3.49,23.24,10.11,32.5,5.57,7.8,14.2,14.21,23.8,15.89,1.72.3,2.45-2.33.72-2.63h0Z"/>
  <path class="cls-1" d="m10.61,5.98c0-.11-.02-.23-.02-.34-.89.12-1.79.24-2.68.36,1.51,6.72,1.37,13.76,2.81,20.55,1.48,7,3.33,13.91,5.25,20.8,1.77,6.37,3.26,12.81,5,19.18,1.8,6.56,4.47,12.94,6.89,19.3,9.66,25.43,16.89,52.6,20.03,79.69.2,1.72,2.93,1.74,2.73,0-1.53-13.22-4.39-26.18-7.55-39.09-3.32-13.59-6.96-26.62-11.96-39.7-2.43-6.37-5.08-12.76-7.04-19.3-1.97-6.56-3.38-13.32-5.22-19.93-1.92-6.89-3.78-13.81-5.3-20.8-1.54-7.09-1.42-14.39-3-21.42-.33-1.48-2.78-1.18-2.68.36,0,.11.02.23.02.34.12,1.74,2.84,1.76,2.73,0h0Z"/>
  <path class="cls-1" d="m4.93,38.94c.84.23,1.8,1.83,2.37,2.46,1.24,1.35,2.55,2.65,3.87,3.92,2.41,2.3,5.81,4.56,7.45,7.51.85,1.54,3.21.16,2.35-1.38-1.86-3.35-5.56-5.82-8.27-8.44-1.55-1.5-3.1-3.05-4.51-4.69-.79-.92-1.34-1.67-2.54-2-1.69-.46-2.42,2.17-.72,2.63h0Z"/>
  <path class="cls-1" d="m17.99,49.49v.76c0,1.76,2.65,1.75,2.73,0,.34-7.73,2.8-15.3,3.08-23.02h-2.73v.29c0,1.75,2.73,1.76,2.73,0v-.29c0-1.76-2.66-1.75-2.73,0-.28,7.71-2.73,15.29-3.08,23.02h2.73v-.76c0-1.75-2.73-1.76-2.73,0h0Z"/>
  <path class="cls-1" d="m4.93,60.91c1.36.53,2.63,2.33,3.76,3.24,1.47,1.18,2.96,2.26,4.57,3.23,3.79,2.29,7.97,3.86,11.56,6.46.47.34,1.27.2,1.65-.21,1.47-1.57.97-2.41,1.41-4.55.52-2.56,1.71-4.98,2.46-7.47,1.53-5.08,2.23-9.89,2.24-15.2,0-1.75-2.72-1.76-2.73,0,0,4.96-.73,9.74-2.14,14.48-.58,1.96-1.37,3.85-1.95,5.81-.29.98-.55,4.3-1.22,5.01.55-.07,1.1-.14,1.65-.21-3.81-2.76-8.25-4.34-12.23-6.88-2.8-1.79-5.28-5.16-8.32-6.33-1.64-.63-2.35,2-.72,2.63h0Z"/>
  <path class="cls-1" d="m6.53,79.9c3.89,4.88,9.6,6.36,14.42,10.04,2.15,1.64,4.09,3.06,6.45,4.39,1.31.74,3.9,2.81,5.62,2.43,1.2-.26,1.34-.98,1.69-2.08,1.14-3.54,1.54-7.37,2.71-10.95,1.91-5.88,4.09-11.29,3.96-17.54-.04-1.75-2.76-1.76-2.73,0,.09,4.68-1.18,9.18-2.74,13.55-.97,2.72-1.87,5.46-2.59,8.26-.23.9-.56,4.35-1.11,5.05-.77.98-.02.69-1.58-.02-3.92-1.79-6.91-4.8-10.51-7.06-4.26-2.67-8.41-3.91-11.67-8-1.09-1.37-3.01.57-1.93,1.93h0Z"/>
  <path class="cls-1" d="m12.52,100.77c3.95,2.5,6.51,4.48,11.08,5.66,2.04.53,4.08.95,6.13,1.43,2.17.51,4.1,1.53,6.24,2.13.77.22,1.4-.27,1.68-.95,1.69-4.14,3.37-8.31,5.29-12.38,1.91-4.05,4.35-6.96,4.6-11.57.09-1.75-2.63-1.75-2.73,0-.25,4.67-3.63,8.68-5.41,12.93-1.45,3.46-2.97,6.83-4.38,10.3.56-.32,1.12-.63,1.68-.95-3.65-1.02-7.13-2.23-10.85-3.15-2.36-.58-4.89-1.05-7.02-2.28-1.72-.99-3.24-2.45-4.92-3.51-1.49-.94-2.86,1.42-1.38,2.35h0Z"/>
</svg>