<?xml version="1.0" encoding="UTF-8"?>
<svg id="Objects" xmlns="http://www.w3.org/2000/svg" viewBox="0 0 73.35 141.03">
  <defs>
    <style>
      .cls-1 {
        fill: #4a1533;
        stroke: #4a1533;
        stroke-miterlimit: 10;
      }
    </style>
  </defs>
  <path class="cls-1" d="m64.98,80.49c-1.48-1.15.34-7.95,2.08-7.24,1.31.54,1.18,3.23.8,4.31-.44,1.24-2.32,2.75-3.65,3.13-1.03.29-.81,1.16.23.87,1.11-.31,2.04-1.05,3.02-1.64.87-.52,1.53-1.18,1.96-2.11.72-1.58.78-5.39-1.59-5.64-1.89-.2-3.33.97-4.07,2.6-.67,1.45-2,5.15-.37,6.42.48.37,2.08-.31,1.61-.68h0Z"/>
  <g>
    <path class="cls-1" d="m32.12,15.8l-.14.68c.52-.18,1.04-.35,1.56-.53-.13-.26-.26-.53-.39-.79-.08-.6-1.75-.17-1.73.46.67,20.95,1.55,41.9,3.41,62.79.92,10.31,2.1,20.59,3.55,30.84,1.44,10.12,3.67,19.93,5.89,29.89.13.6,1.87.16,1.73-.46-2.22-9.96-4.45-19.77-5.89-29.89-1.45-10.25-2.63-20.53-3.55-30.84-1.86-20.88-2.74-41.84-3.41-62.79-.58.15-1.16.31-1.73.46.11.86.05.71.74,1.16.38.25,1.46-.03,1.56-.53l.14-.68c.13-.65-1.61-.38-1.73.22h0Z"/>
    <path class="cls-1" d="m34.1,48.64c4.81-1.81,8.74-6.99,11.49-11.13,1.94-2.92,3.47-6.14,5.06-9.26,1.3-2.53,2.78-5.15,3.26-7.99-.58.07-1.16.15-1.73.22,0,.05,0,.09,0,.14-.02.71,1.71.36,1.73-.22,0-.05,0-.09,0-.14.02-.71-1.64-.35-1.73.22-.89,5.21-4.48,10.71-7.11,15.23-2.56,4.39-6.72,10.35-11.65,12.21-1.13.43-.1,1.01.68.71h0Z"/>
    <path class="cls-1" d="m33.87,38.22c-2.42-.96-4.5-1.99-6.24-4-.95-1.09-1.9-2.19-2.83-3.3-.68-.81-1.95-1.87-2.13-2.93-.1-.59-1.85-.17-1.73.46.17.97.78,1.43,1.42,2.14,1.26,1.39,2.44,2.88,3.66,4.3,1.82,2.11,3.92,3.15,6.47,4.16.52.21,2.1-.55,1.38-.84h0Z"/>
    <path class="cls-1" d="m34.67,61.29c-5.8-.11-10.73-6.27-14.39-10.17-1.91-2.04-3.32-4.36-4.86-6.67-1.36-2.04-4.12-4.57-4.51-7.01-.09-.58-1.84-.18-1.73.46.4,2.52,2.95,4.74,4.35,6.79,2.08,3.05,3.97,5.94,6.59,8.57,3.8,3.82,8.05,8.89,13.89,9,.66.01,1.84-.96.67-.98h0Z"/>
    <path class="cls-1" d="m35.95,69.01c3.16-.59,5.7-4.27,7.61-6.55,3.22-3.84,5.83-8.44,6.29-13.52.06-.69-1.68-.37-1.73.22-.35,3.83-2.07,7.7-4.26,10.8-1.27,1.79-2.73,3.45-4.22,5.07-.77.84-2.34,2.81-3.46,3.02-.82.15-1.43,1.18-.24.96h0Z"/>
    <path class="cls-1" d="m37.37,85.2c-6.04-.36-10.44-5.91-13.69-10.48-1.82-2.56-3.42-5.26-4.97-7.99-1.3-2.29-2.27-4.9-3.82-7.02-.34-.47-2.02.11-1.61.68,1.91,2.62,3.17,5.94,4.81,8.75,1.78,3.05,3.68,6.04,5.89,8.8,3.25,4.06,7.27,7.92,12.71,8.25.66.04,1.84-.91.67-.98h0Z"/>
    <path class="cls-1" d="m38.5,94.9c4.29-4.03,8.47-7.93,11.39-13.1,2.82-4.99,5.89-10.39,7.1-16.02.15-.71-1.47-.25-1.67.09-.07.11-.13.22-.2.32-.42.69,1.32.53,1.61.04.07-.11.13-.22.2-.32-.56.03-1.12.06-1.67.09-1.2,5.53-4.2,10.85-6.99,15.76-2.87,5.06-6.96,8.91-11.17,12.85-.73.69.97.68,1.39.28h0Z"/>
    <path class="cls-1" d="m39.27,106.29c-2.72-1.86-5.69-3.15-8.35-5.15-2.58-1.94-5.14-3.94-7.57-6.06-4.75-4.16-9.43-9.7-10.9-15.99-.14-.6-1.88-.15-1.73.46,1.48,6.34,6.24,12.02,11.02,16.2,2.56,2.24,5.27,4.35,8,6.38,2.58,1.92,5.51,3.18,8.15,4.99.46.32,2.07-.37,1.38-.84h0Z"/>
    <path class="cls-1" d="m40.28,113.05c-.04.06-.09.12-.13.17-.52.69,1.14.38,1.34.28,2.62-1.34,4.88-4.4,7.09-6.36,2.8-2.48,5.27-5.05,7.49-8.06,4.59-6.22,8.2-12.62,11.33-19.68.23-.53-1.48-.35-1.73.22-2.96,6.68-6.32,12.72-10.62,18.61-2.12,2.9-4.39,5.53-7.07,7.92-1.31,1.17-2.66,2.3-3.94,3.51-1.15,1.09-2.2,2.58-3.63,3.31.45.09.9.18,1.34.28l.13-.17c.46-.62-1.27-.49-1.61-.04h0Z"/>
    <path class="cls-1" d="m54.34,20.43c-1.74-.43-1.89-3.61-1.67-4.99.09-.55.26-1.11.47-1.63.2-.5.46-.98.78-1.42.32-.76.86-.97,1.62-.63.85-.2,1.36.14,1.54,1.01.16.37.26.75.32,1.14.14.92-.01,1.76-.42,2.58-.75,1.51-2.12,3.14-3.85,3.54-1.05.24-.82,1.11.23.87,2.43-.57,4.61-2.65,5.53-4.94.86-2.14-.09-5.78-2.83-5.69-2.39.07-3.97,1.93-4.74,4.04-.78,2.14-.82,6.39,1.97,7.07.55.14,2.04-.7,1.06-.94h0Z"/>
    <path class="cls-1" d="m22.48,28.79c-2.12.04-3.9-.18-5.24-2-.81-1.1-1.59-3.12-1.37-4.51.16-1.03.33-.89,1.5-1.01,1.24-.12,1.13-.29,1.72.44.52.65.94,1.41,1.23,2.18.59,1.55.66,3.51.66,5.14,0,.53,1.73.21,1.92-.46v-.1c-.19-.53-1.92-.21-2,.46v.1c.65-.15,1.23-.31,1.81-.46,0-2.72-.31-6.18-2.53-8.11-1.38-1.19-3.8-.88-5.12.28-1.68,1.48-.87,4.2.02,5.9,1.43,2.69,3.92,3.18,6.71,3.13.65-.01,1.84-1,.67-.98h0Z"/>
    <path class="cls-1" d="m10.31,38.25c-2.17.46-3.85-1.12-4.88-2.86-.5-.84-1.92-3.96-1.15-4.91.71-.04,1.43-.07,2.14-.11.14.16.29.32.43.48.39.35.65.98.9,1.43.37.67.64,1.32.86,2.06.43,1.47.52,3.28,1.44,4.54.35.47,2.02-.12,1.61-.68-.99-1.34-.96-3.45-1.52-4.99-.43-1.19-1.19-2.65-2.12-3.51-1.4-1.3-3.95-1.32-5.14.32-1.31,1.82.24,5.21,1.38,6.75.77,1.03,1.8,1.91,3.01,2.38,1.16.45,2.08.22,3.27-.03,1.06-.22.82-1.09-.23-.87h0Z"/>
    <path class="cls-1" d="m49.99,49.48c-.87-1.09-1.48-1.92-1.75-3.35-.14-.75-.38-1.74-.21-2.49.25-1.04,1.61-2.22,2.48-1.28,1.64,1.78.14,6.18-1.69,7.22-.69.39-.11.77.42.74.08,0,.17,0,.25-.01.86-.05,1.44-1.03.24-.96-.08,0-.17,0-.25.01.14.25.28.49.42.74,2.44-1.38,5.05-8.57.71-9.26-1.8-.29-3.71,1.09-4.24,2.79-.73,2.34.64,4.81,2,6.53.37.46,2.04-.14,1.61-.68h0Z"/>
    <path class="cls-1" d="m57.4,65.89c-1.09-.62-1.67-1.88-1.92-3.06-.17-.79-.25-1.67-.12-2.46.14-.92.95-3.41,2.68-1.75,1.98,1.89.12,6.31-1.72,7.58-.96.67.53.89,1.08.51,1.73-1.2,3.17-3.71,3.13-5.82-.04-2-.88-3.82-3.11-3.76-4.85.14-4.99,7.54-1.39,9.6.49.28,2.09-.43,1.38-.84h0Z"/>
    <path class="cls-1" d="m14.79,59.8c-2.32.49-4.45-.14-5.85-2.13-.5-.71-2.83-5.9.11-4.94,1.52.49,2.58,2.83,3.19,4.13.54,1.16.87,2.85,1.85,3.71.46.4,2.08-.27,1.61-.68-1.05-.91-1.37-2.84-2.02-4.06-.71-1.36-1.45-2.58-2.68-3.53-1.36-1.06-3.35-1.46-4.58.11-1.51,1.93-.01,5.03,1.41,6.57.88.96,2.2,1.68,3.46,2,1.35.35,2.41-.04,3.72-.32,1.06-.23.82-1.09-.23-.87h0Z"/>
    <path class="cls-1" d="m12.28,79.43c-1.92.3-3.46.61-4.85-1.03-1.14-1.34-1.6-3.57-.58-5.08,2.01-2.98,3.63.99,3.98,2.55.43,1.94.66,3.91.29,5.88.56-.15,1.11-.3,1.67-.45-.04-.04-.07-.09-.11-.13-.38-.46-2.04.15-1.61.68.04.04.07.09.11.13.33.4,1.58.05,1.67-.45.5-2.7.27-6.61-1.37-8.93-1.44-2.05-4.11-1.64-5.69,0-1.72,1.79-1.59,4.63.02,6.48,1.78,2.05,3.87,1.68,6.23,1.31.83-.13,1.44-1.15.24-.96h0Z"/>
    <path class="cls-1" d="m33.9,15.8c-2.05-.38-3.19-2.46-3.86-4.26-.46-1.22-1.64-4.29-.84-5.45,1.82-2.65,2.94.24,3.19,1.38.22,1,.23,2.09.27,3.11.06,1.34.18,2.79-.12,4.12-.19.84-.65,1.54-.81,2.38.58-.07,1.16-.15,1.73-.22,0-.04,0-.08,0-.13.03-.71-1.71-.36-1.73.22,0,.04,0,.08,0,.13-.03.72,1.62.34,1.73-.22.35-1.77.97-3.12.97-5.02,0-1.74.08-3.72-.45-5.39-.71-2.23-2.8-3.31-4.92-2.08-4.28,2.48-.25,11.61,3.78,12.36.55.1,2.04-.76,1.06-.94h0Z"/>
  </g>
</svg>