<svg xmlns="http://www.w3.org/2000/svg" viewBox="0 0 92.13 200.26"><defs><style>.cls-1{fill:#4a1533;}</style></defs><title>Plan de travail 54</title><g id="Objects"><path class="cls-1" d="M34.42,36.18C31.19,45.15,32,56,32.25,65.43a253.44,253.44,0,0,0,2.24,29.14c1.15,8.25,4.61,31.36,18.07,28,9.46-2.38,11.26-24.71-.13-23.84C47,99.11,47,109.17,46.64,113c-.87,10,1,19.14,3.5,28.75s6.06,19.67,11.64,28c2.74,4.11,5.81,8,8.56,12.1,1.37,2,2.73,4,4.24,6,.88,1.13,4.17,3.43,4.44,4.69.31,1.43,2.5.82,2.19-.6-.37-1.74-1.68-2.32-2.94-3.39-3.07-2.63-5.08-6.57-7.37-9.86-3.88-5.57-8.25-10.84-11.21-17A119.15,119.15,0,0,1,52,139.82c-2.1-8.2-3.72-16.1-3.24-24.62a57.71,57.71,0,0,1,1.33-10.14c.33-1.42.71-3.6,2.35-4.09,2.34-.71,4.07,2.06,4.74,3.8,1.91,4.94.77,14.09-5.21,15.58s-9.63-5.25-11.47-9.71c-2.57-6.21-3.44-13.22-4.21-19.84A267,267,0,0,1,34.49,64c-.13-8.75-.88-18.88,2.12-27.2.5-1.38-1.7-2-2.19-.61Z"/><path class="cls-1" d="M33.16,54C24,54,25,36.3,26.91,30.77a48.32,48.32,0,0,1,6.36-11.4A43.63,43.63,0,0,1,38,13.66c1.41-1.43,2.91-3.48,4.71-4.41L41,8.27C41,16.12,42.13,24,42.27,31.82a61,61,0,0,1-1.54,13.73c-.52,2.33-1.32,4.86-3.28,6.36-.67.52-4.13,2.48-4.91,1.47s-2.49.47-1.6,1.61c1.67,2.14,6.05.09,7.79-1.13,3.31-2.32,4.17-7,4.71-10.7A84.3,84.3,0,0,0,44,24.05c-.4-5.31-.73-10.5-.77-15.78a1.15,1.15,0,0,0-1.71-1c-2.17,1.13-3.94,3.5-5.64,5.24a50.8,50.8,0,0,0-5.3,6.75c-3.26,4.78-6.27,10-7,15.8-.88,6.75.11,21.24,9.6,21.18a1.14,1.14,0,0,0,0-2.27Z"/><path class="cls-1" d="M36,87.09c3.32-6.91,8.53-14.87,15.41-18.74l-1.37-.18.23.27c1,1.1,2.56-.51,1.6-1.61l-.23-.26a1.12,1.12,0,0,0-1.37-.18c-7.19,4-12.75,12.32-16.23,19.55-.62,1.31,1.33,2.47,2,1.15Z"/><path class="cls-1" d="M38.63,76.6v.17H40.9A22.5,22.5,0,0,1,51.5,57.45c6.09-3.76,14.75-4.57,21.77-4.69-.33-.57-.66-1.14-1-1.71-1.73,2.59-4.15,4.81-5.9,7.47-2.18,3.31-4.09,6.75-6.51,9.91a21.33,21.33,0,0,1-9.73,7c-3.35,1.35-6.26,2.77-9.5.61l-.57,2.11.16,0c1.44.16,1.43-2.11,0-2.27l-.16,0c-1.21-.13-1.41,1.56-.57,2.12,2.86,1.91,4.74,1.9,8.07.79,3.81-1.27,8-2.75,11-5.49S64,66.89,66,63.56c1.32-2.13,2.55-4.28,4-6.32,1.29-1.79,3-3.24,4.21-5a1.15,1.15,0,0,0-1-1.71c-8,.14-17.91,1.18-24.55,6.1A24.78,24.78,0,0,0,38.63,76.77a1.14,1.14,0,0,0,2.27,0V76.6a1.14,1.14,0,0,0-2.27,0Z"/><path class="cls-1" d="M36.31,103.44c.08-.3-5.92-4.33-6.57-4.89-1.15-1-2.31-2-3.4-3s-3.42-3-3.61-4.55-2.45-1.45-2.27,0c.28,2.22,1.94,3.8,3.47,5.36a62.53,62.53,0,0,0,6.84,6c1.26,1,6.78,5.37,7.73,1.72a1.14,1.14,0,0,0-2.19-.6Z"/><path class="cls-1" d="M11.06,65.45c-2.37,8-3.87,17-.1,24.79,1.48,3.07,3.42,6.14,6.48,7.81s6.87,3.75,10.32,3.25c7.6-1.1,4.63-12.46,2-16.57-2.22-3.45-5.62-6.12-8.24-9.25-2.83-3.38-6.94-6.33-7.78-10.92l-2.19.6.24.65c.5,1.36,2.69.77,2.18-.6l-.23-.65a1.14,1.14,0,0,0-2.19.6c.92,5,5.26,8.21,8.36,11.92,4,4.8,10.34,9.25,10.47,16.14.15,8.13-8,5.1-11.77,2.87-2.87-1.68-4.6-4.59-5.94-7.54-3.17-7-1.5-15.41.6-22.5a1.14,1.14,0,0,0-2.19-.6Z"/></g></svg>