<?xml version="1.0" standalone="no"?>
<!DOCTYPE svg PUBLIC "-//W3C//DTD SVG 20010904//EN"
 "http://www.w3.org/TR/2001/REC-SVG-20010904/DTD/svg10.dtd">
<svg version="1.0" xmlns="http://www.w3.org/2000/svg"
 width="150.000000pt" height="150.000000pt" viewBox="0 0 150.000000 150.000000"
 preserveAspectRatio="xMidYMid meet">
<metadata>
Created by potrace 1.11, written by Peter Selinger 2001-2013
</metadata>
<g transform="translate(0.000000,150.000000) scale(0.100000,-0.100000)"
fill="#000000" stroke="none">
<path d="M708 1239 c-74 -63 -159 -214 -184 -326 -14 -64 -13 -249 1 -313 31
-139 107 -276 189 -343 l44 -36 56 52 c90 84 159 224 180 367 l7 45 -45 -49
c-24 -27 -49 -68 -56 -90 -15 -50 -66 -152 -80 -161 -15 -9 -13 -2 20 84 82
212 255 374 463 435 l47 14 0 -25 c0 -45 -32 -168 -61 -231 -63 -140 -172
-245 -318 -307 -47 -21 -89 -40 -93 -44 -4 -3 118 -5 270 -3 226 3 280 6 292
18 11 11 12 19 4 32 -10 14 -29 17 -125 19 -63 1 -125 2 -138 2 -23 1 -22 3
15 38 140 132 217 309 223 510 l2 70 -63 -10 c-139 -21 -289 -98 -396 -205
-71 -71 -151 -189 -176 -260 -24 -68 -27 -68 -55 0 -26 61 -115 208 -126 208
-3 0 -3 -27 -1 -59 2 -40 12 -77 31 -113 30 -58 77 -180 71 -185 -7 -7 -46 55
-72 113 -95 215 -58 504 86 666 l36 41 42 -48 c69 -79 131 -235 132 -332 0
-30 11 -29 44 6 20 21 26 35 21 50 -3 11 -8 32 -11 46 -17 94 -79 217 -148
292 -70 78 -74 78 -128 32z"/>
<path d="M95 934 c13 -209 75 -360 198 -489 l62 -65 -30 0 c-16 -1 -79 -2
-140 -3 l-110 -2 -3 -27 c-3 -22 2 -28 20 -32 13 -3 143 -7 291 -8 l267 -3
-109 53 c-155 74 -237 152 -308 293 -29 59 -51 133 -59 199 -3 25 -7 50 -9 57
-11 33 186 -52 273 -117 l52 -40 0 48 0 48 -68 41 c-86 51 -197 92 -273 100
l-58 6 4 -59z"/>
</g>
</svg>
